# xmcd CD database file
#
# Track frame offsets:
#	150
#	12047
#	29772
#	39457
#	56967
#	71667
#	93347
#	106290
#	116790
#	135090
#	153725
#	170557
#	193275
#	209017
#	223270
#	244222
#	254327
#	271165
#
# Disc length: 3845 seconds
#
# Revision: 0
# Processed by: cddbd v1.4PL0 Copyright (c) Steve Scherf et al.
# Submitted via: CDex 1.40PlusFr
#
DISCID=160f0312
DTITLE=Didier Roussin and Dominique Cravic - Bluestory and The New blue 4 and Les primitifs du futur
DYEAR=1998
DGENRE=Blues
TTITLE0=Les trois salopards
TTITLE1=Blues, amour et bottleneck
TTITLE2=Washing the blues away
TTITLE3=Pleurer comme une folle
TTITLE4=Ain't che sweet
TTITLE5=L'homme en bleu
TTITLE6=Leecan and Cooksey
TTITLE7=Charlotte hot step
TTITLE8=Coeur de plomb
TTITLE9=It's mint, my friend
TTITLE10=Just a little swing
TTITLE11=Les mystère de la chambre bleue
TTITLE12=Eddie and Lonnie
TTITLE13=Personne n'en sait rien maint'nant
TTITLE14=Accordéon Jo
TTITLE15=Dionnette
TTITLE16=Zoo blues (Best year  for the Bestiary)
TTITLE17=My love parade
EXTD=YEAR: 1998 ID3G: 0
EXTT0=
EXTT1=
EXTT2=
EXTT3=
EXTT4=
EXTT5=
EXTT6=
EXTT7=
EXTT8=
EXTT9=
EXTT10=
EXTT11=
EXTT12=
EXTT13=
EXTT14=
EXTT15=
EXTT16=
EXTT17=
PLAYORDER=
